<svg width="256" height="256" viewBox="0 0 256 256" fill="none" xmlns="http://www.w3.org/2000/svg">
<path d="M0 70C0 31.3401 31.3401 0 70 0H186C224.66 0 256 31.3401 256 70V186C256 224.66 224.66 256 186 256H70C31.3401 256 0 224.66 0 186V70Z" fill="#5E81AC"/>
<path d="M71.3656 246C68.449 246 66.9906 244.542 66.9906 241.625V192.275C66.9906 190.875 67.049 189.767 67.1656 188.95C67.399 188.017 68.099 187.2 69.2656 186.5L106.366 165.15V156.4L69.7906 137.15C67.924 136.1 66.9906 134.35 66.9906 131.9V53.15C66.9906 51.2833 67.1073 49.9417 67.3406 49.125C67.574 48.1917 68.3906 47.2 69.7906 46.15L115.991 15C116.924 14.3 117.916 13.775 118.966 13.425C120.016 12.9583 121.357 12.725 122.991 12.725H184.766C187.682 12.725 189.141 14.1833 189.141 17.1V68.9C189.141 71.4667 188.266 73.2167 186.516 74.15L140.666 94.275V103.375L186.516 129.625C188.266 130.442 189.141 132.308 189.141 135.225V211.35C189.141 212.283 188.966 213.275 188.616 214.325C188.382 215.258 187.799 216.017 186.866 216.6L131.916 243.9C131.216 244.367 130.341 244.833 129.291 245.3C128.357 245.767 127.424 246 126.491 246H71.3656Z" fill="#ECEFF4"/>
</svg>
